<?xml version="1.0" encoding="UTF-8"?> <svg xmlns="http://www.w3.org/2000/svg" width="61" height="66" viewBox="0 0 61 66" fill="none"><path fill-rule="evenodd" clip-rule="evenodd" d="M55.3452 7.71586C55.6158 7.06277 55.765 6.34436 55.765 5.59796C55.765 2.50975 53.2553 0 50.1671 0C47.0789 0 44.5784 2.50975 44.5784 5.59796C44.5784 5.70059 44.5878 5.80322 44.5971 5.89652H10.7108C4.82358 5.89652 0 10.7201 0 16.6073V55.2892C0 61.1857 4.82358 66 10.7108 66H49.3927C55.2799 66 60.1035 61.1764 60.1035 55.2892V16.6073C60.1128 12.922 58.2188 9.64716 55.3452 7.71586ZM53.4419 59.9075H46.9016V53.4792L46.5004 54.6734L45.9966 55.8397L45.4461 56.922L44.7837 57.9016L44.4385 58.3215L44.0746 58.7226L43.2536 59.3571L42.8244 59.5997L42.3766 59.7863L41.9287 59.8889L41.4529 59.9169H34.782L33.3079 49.2528L36.6387 49.3274L37.6463 49.2994L38.6819 49.2434L39.7175 49.0288L40.1934 48.8702L40.6412 48.6556L40.8278 48.4224L40.9864 48.1332L41.117 47.8439L41.2197 47.5267L41.2757 47.1815L41.3036 46.8083L41.2757 46.0153L41.145 45.1942L40.9118 44.3452L40.6412 43.4775L40.296 42.6565L36.4614 35.0153L39.475 29.1934L39.8762 28.2604L40.2214 27.4114L40.436 26.665L40.5946 26.0025L40.6412 25.3961L40.6132 24.8643L40.5293 24.4165L40.3706 24.0153L40.1654 23.698L39.8762 23.4088L39.5589 23.1942L39.1671 23.0076L38.7379 22.877L38.2901 22.8024L37.7863 22.7464H37.2544H34.5861L34.6887 24.4911L34.7167 26.2638L34.6607 28.0365L34.5021 29.8092L34.2875 31.5539L34.0263 33.2426L33.6811 34.8287L33.4945 35.5657L33.3079 36.3028L33.0746 37.0679L32.7854 37.8329L32.123 39.447L31.7218 40.3333L31.3019 41.1824L30.3223 42.8991L29.8185 43.7761L29.2587 44.6438L28.0645 46.3885L26.7956 48.1052L26.1332 48.9542L25.4707 49.8032V59.9075H20.1527V54.1976L18.9864 59.9075H6.66158V47.9279V35.9389V23.9593V11.9983H13.1925L13.1645 30.6489L13.1366 49.3274H20.1527V37.0025V24.6964H25.4707V37.2358L26.0025 36.3308L26.637 35.2205L27.2714 34.0076L27.8779 32.6828L28.4377 31.3019L28.8855 29.9025L29.0721 29.1934L29.2027 28.531L29.2773 27.8405L29.3053 27.2061L29.2494 25.7506L29.0628 24.715L28.9041 24.3511L28.7455 24.0619L28.5589 23.8287L28.3444 23.6701L27.8125 23.5115L27.1781 23.4835L25.62 23.5301H18.6319L20.1433 12.045H27.1221L27.7846 12.0729L28.447 12.1849L29.0254 12.3435L29.6039 12.5861L30.1357 12.8753L30.6395 13.2205L31.1153 13.6217L31.5352 14.0695L31.955 14.5454L32.3282 15.0958L32.9627 16.2901L33.2519 16.9525L33.5131 17.6429L33.7464 18.3613L33.933 19.1264L34.9126 12.0076H40.3613L40.9958 12.0356L41.6022 12.1942L42.162 12.4088L42.7125 12.698L43.2443 13.0992L43.7201 13.5471L44.1773 14.0789L44.5784 14.6573L44.9703 15.2918L45.2875 15.9822L45.5767 16.7472L45.8193 17.5403L46.0059 18.3613L46.1365 19.2383L46.2392 20.1433L46.2672 21.067L46.2112 23.1849L46.0806 25.0322L45.838 26.7303L45.7074 27.5513L45.5488 28.3164L45.1569 29.8558L44.7091 31.3953L43.5988 34.698L44.3172 36.3588L45.1849 38.5047L46.0899 41.0424L46.5097 42.4232L46.8736 43.8507V27.8965V11.9983H53.4139V23.9593V35.9389V47.9186V59.9075H53.4419ZM50.1764 10.3562C47.5547 10.3562 45.4181 8.21035 45.4181 5.59796C45.4181 2.97625 47.564 0.839695 50.1764 0.839695C52.7981 0.839695 54.944 2.98558 54.944 5.59796C54.9347 8.21968 52.7888 10.3562 50.1764 10.3562Z" fill="white"></path></svg> 